# xmcd
#
# Track frame offsets: 
#        150
#        10520
#        24391
#        35784
#        47696
#        58028
#        68260
#        81120
#        93885
#        104456
#        117276
#        128865
#        142281
#        155921
#        168906
#        182454
#        194588
#        206276
#        217483
#        230450
#        241465
#        253279
#        264142
#        274875
#        285197
#        296653
#        306922
#        318159
#        328729
#
# Disc length: 4526 seconds
#
# Revision: 0
# Processed by: cddbd v1.5.1PL0 Copyright (c) Steve Scherf et al.
# Submitted via: ExactAudioCopy v0.95a5
#
DISCID=ab11ac1d
DTITLE=Robert Johnson - Inspiring Eric
DYEAR=2004
DGENRE=Blues
TTITLE0=Little Queen Of Spades
TTITLE1=They're Red Hot
TTITLE2=Me And The Devil Blues
TTITLE3=Last Fair Deal Gone Down
TTITLE4=Stop Breaking Down Blues
TTITLE5=Milkcow's Calf Blues (Take 2)
TTITLE6=Kind Hearted Woman Blues
TTITLE7=Come On In My Kitchen
TTITLE8=Love In Vain
TTITLE9=32-20 Blues
TTITLE10=Hell Hound On My Trail
TTITLE11=I Believe I'll Dust My Broom
TTITLE12=Sweet Home Chicago
TTITLE13=Ramblin' On My Mind
TTITLE14=Terraplane Blues
TTITLE15=Cross Roads Blues
TTITLE16=Dead Shrimp Blues
TTITLE17=Walkin' Blues
TTITLE18=Preachin' Blues
TTITLE19=Stones In My Passway
TTITLE20=I'm A Steady Rollin' Man
TTITLE21=From Four Until Late
TTITLE22=Malted Milk
TTITLE23=Honeymoon Blues
TTITLE24=Kind Hearted Woman Blues (Take 2)
TTITLE25=Little Queen Of Spades (Take 2)
TTITLE26=Me And The Devil Blues (Take 2)
TTITLE27=Milkcow's Calf Blues (Take 3)
TTITLE28=Ramblin' On My Mind (Take 2)
EXTD=
EXTT0=
EXTT1=
EXTT2=
EXTT3=
EXTT4=
EXTT5=
EXTT6=
EXTT7=
EXTT8=
EXTT9=
EXTT10=
EXTT11=
EXTT12=
EXTT13=
EXTT14=
EXTT15=
EXTT16=
EXTT17=
EXTT18=
EXTT19=
EXTT20=
EXTT21=
EXTT22=
EXTT23=
EXTT24=
EXTT25=
EXTT26=
EXTT27=
EXTT28=
PLAYORDER=
